/* XPM */
static char *eb26ba5b4633436193cafc91d35db8b54Ph8ayX3H2hXqjtr[] = {
/* columns rows colors chars-per-pixel */
"76 78 29 1 ",
"  c #6F6F48",
". c #71714A",
"X c #73734C",
"o c #74734C",
"O c #77764E",
"+ c #78764F",
"@ c #797750",
"# c #7B7952",
"$ c #7C7A53",
"% c #7D7B54",
"& c #7E7C55",
"* c #807E57",
"= c #817F58",
"- c #83825A",
"; c #84835B",
": c #85855C",
"> c #88885F",
", c #898960",
"< c #8C8C63",
"1 c #8D8D64",
"2 c #909067",
"3 c #939369",
"4 c #94946A",
"5 c #96966C",
"6 c #98986E",
"7 c #9B9B71",
"8 c #9C9C71",
"9 c #9F9F74",
"0 c #A0A075",
/* pixels */
"611311634554333465113433455543269,-583524531<257336511633344333365<<45133554",
"1-:13433455433343,:>3433455543246>*15353454324583:-:26733344333373=*36333554",
"=+*;37<345543333,=$;1433445543313;$:<155554455631& O1633344443335,OO,5333554",
"O@-$,7<34554333>;%#=,3344454433,,-#&:<465456665>:*O$,21334444333,=+@-1433554",
"O:1#-5334554333-----:1444444433,:-=%-13544456541::>:;,5344444433-$::&-533554",
"=14--3434554333;:,,::<5444443331;:,-:23455554333,:,:&:7444554443-=33--433554",
"<331,143455433311121,15544433344:,4,,41467643331<,,::14444554444<,33,,333554",
"51153143455433373133125544333346:17225147874234<453377244555544564<<35333554",
"555434504,,25436555443304<13445433563355531366234665444353,<67356664333486,1",
"555434483>:14545554444361::,1345335533463:=:34134565543151&=36134554333551::",
"55543343,-->244544444442:&&;>14544553336,$O&<314445554313:O+1531344333451:*-",
"4543334>-%$-,23444444551-$%-:15544543335,%O%>34433455434,-#&:35334433344:&&=",
"4543334:-&&-:1444444455,-%&-:15455443322,:-=:16433444436-$::=:7456543331;*;;",
"4443334,,>::,3654444444,:--;:,235543442,,,,:-,5344433346-%,1=;5566643331::,,",
"44433333331<136555444431<,<,>,1355335421<131:,4146421365,:<1>,33455433311211",
"44433333553113565554433434531,1255335534124411414751,37663,<4532344333434531",
"5347414344444673663135523344433587,,6725456312543443137556666664664466422333",
"1:,13333455433332,::2434456655454<:,45143454335441-;15433344433253::35233333",
"-%--<733466421<2:&#-243334444334,&&:1214324544543;.O<511233333334,##,4344433",
"@#-O:8335654211,-##;143333333333-@%-:,36324543331=oO:213334444341-$$-1433333",
"+=:+-6345543344:-=-:,24655544441;&--=,6843453211:-:-=:4334455445;%::%;523333",
"*>1-;3345543356-;:,::<4554433331,:>:-,6854543111::31-:5333444443-&,,&-312334",
",121,1334554344<,12<>16543322233111,,13655541133<<33,14333444441,,<<,,133333",
"41253,32355432164343137765433443321232<44564125531,145334455554155<<55144333",
"5556666421135545676446866313763113442245531354,433345546531356645555443863<1",
"444444472:>25535433333364,:16514357634673>;,44143334543462-:47455443344431<1",
"44444446,&&:3335311333151=&:33<5567644671&@-3434444553225,O@1625533234431:;:",
"55555551:@O&>23643334313>&#*>11544642344,$O&,354445553111-O+:21443333336<*+@",
"5555444:-&#$;2745653334<:-%%-,454453124,:-&&;16444555313:&=--:3334543315,&#@",
"4443333::>:-:3834653134<,::*=,664554346::>:;;16444455324-&,1-;3235664311::::",
"4433332,121<<353345433331<<>:<6655654581,<1,>15433345434::13,,4345654321,,32",
"5554433123332115434675351121<1554455358311331144333455431<133335555544441132",
"4,,4337444333453334676465431246453,,46564455358653,2663721662256311134637414",
"1-;34355433344563,:14534454333453,;,4536555433664,:,35373366214441;:35337525",
":O#,3336433455481*$-1342466533351-%:2316555412451:&-,226337621323>#&35,37535",
"&o@-143742246533:$#*:14246653333,*#=,12544541243,-$&:,1434663243<=@&,2137414",
"%#*&:4474235654-=----,534543334<:-**;14334543351:-=-;:,234553356:#=:-:4584<3",
"*:,&:6575334654&=:1,;,655433345,:::::15334653361>::::>1235433467-%,<*:7584<3",
"-15;>8465444556::,31:1745543335,>,11<154457633531,11,14456311464::32;>737525",
":48,183555444564<,32,18345433341>,353346567633463121<266773<13511241,1616648",
"443223344333345555444577851145322333445663<14413566533457511488136643332771,",
"444333441,,13445555445653,;,45344444444541>,34323553333563>:26813554333441>>",
"55433453,-->344456554453,&$:3436665555531>-:1443355433354,=*>471355433371--:",
"5543345,:&%-,35346654441:&#-<34655555551,-&*>354456543351:##-27335654337:&=-",
"5544456::-&&:3734565444<:-&&;1534445566,:*%&;154455554341-##-16445666435:*-=",
"4443346:::;-:3834554344,::-**:333344556,:---;15333444313<:-=-16445676433,::-",
"3433345,,,,:,36444433451>:>::>2333444551,,,>:16433454313<,,>:153334653141>,>",
"333334511,<1334444333453,>131135554444431131,165445664231<21,153223543<51,,1",
"31<1345333333333454335741268522381:661413674<141453344164455334<354212333455",
"1::14543333333374<,14554236743346:-231545775114331>>24354455335243>:24333455",
",--,4543333333392-*>3543345533433-$:,167556532332:&*>355335544543:%*15433455",
":&&:145333333335>$#;144345533352>&$-:15631343233,-##;25433554464,&$&-1633444",
":-&=:3633333333:-&&-,3534543345<-*-;:13521354332>-&&;14433554463=$:-O-834444",
"::-=:1633333333--:::,2524543443<=:1>:12632465442,::::<3533554452=*<:O=844444",
"<,::,2533333333:,,,,,24245446412-,5<,33644664333<,,<,14544553352,><,:,444433",
"2,>,13333333333331111342444575,4-171,54545651,<51<11<1564455334342:,34144433",
"5543333334433456554445524543344313553233661,145554445673<1564484444433341387",
"544433363,,14555555543263<,145432366333441:,35444444556332<133244444333442,<",
"544433381*&:3554566531<91=&:3434346643461;*:3433344544434<*-13,4444433336,@%",
"44443335>#+-144455554317,#@=,13544664345,&#-<32334554332,=#*,334444433313:XO",
"4444433,:&#*:14554445551;%%*->3644653343:&#&:13334554333-@*;;,744444333<>-$#",
"4444444;::--:1354444567:--:-=:3644553341>--=-,4444544335;&,,*:6444443331:-:-",
"4444444:>,,,,1444455555>;:<,:>4643442234<:>>:14655444443,,3<-:4444443333>:<<",
"3444444,<111234345554311::22,<56434311361,1211476544455,353<,<34444433351,13",
"33351<5456543331574234355676533443333457544443337721661543333456127711533465",
"1>,331445554333343<14534455543363<,133355543235463:>47454333345453<<34333465",
",&-<3334555433341:-:3433444333371;-:1323564114753:$*15444433444373%$26133465",
"-@%-,33345543332,-%=,34433333443,*#&:13456423583,%O#:234444444425,OO,4133465",
"&$*#;3334554334,:-%%-1544434445>:=##-15764445672:&$*:13444444442,-%%-,133465",
"%->#-4334554334::;-=-,544444444;::-*-16754466541:;:,:15344444433:-::=;233465",
"&,3-:6234554344,::,,,1434444332,,1<,,24455544331>,21:,6334554334>:1<::333465",
"*17>181335543442,>243133344431<2233333114763113,:,3<-:63345543341111,1333465",
"4444455355543453334566646<18410512773256763354133455443433554573455433306347",
"4433333731,144433344444581:451434444543651>144133445443441:,56334554333674,<",
"543322271=*>3435443332146:#>53,2661166261-&:3413444444333:+&36134554333163*%",
"54333333:@+-13455443322,>&@-133465115533,&@*,344444443321-O#>213455433311:#@",
"4444445;*##=,3455544433,$#--=,7733442351:=$$-16544433331:--*&:4345543334:%%*",
"4444556=----:15555444441#*1:#:683266116<>:-=-<6554333332::<:$;6345543336:%::"
};
