/* XPM */
static char *d7e3517aec8e42388b8e6b0875deb662MLfIvxNyvM9CCaTg[] = {
/* columns rows colors chars-per-pixel */
"96 102 46 1 ",
"  c #84844F",
". c #868553",
"X c #888755",
"o c #868A54",
"O c #8C8B55",
"+ c #8A8759",
"@ c #878B58",
"# c #8D8D5A",
"$ c #908E56",
"% c #908E5C",
"& c #8F9057",
"* c #8E915C",
"= c #909157",
"- c #94945E",
"; c #97985F",
": c #9C9C5F",
"> c #918E60",
", c #8E9260",
"< c #969561",
"1 c #969564",
"2 c #959764",
"3 c #989763",
"4 c #989664",
"5 c #959860",
"6 c #979863",
"7 c #979865",
"8 c #989862",
"9 c #9C9B63",
"0 c #9B9C62",
"q c #9D9D62",
"w c #989A65",
"e c #9C9B67",
"r c #9B9C66",
"t c #9C9C65",
"y c #999768",
"u c #979868",
"i c #999A68",
"p c #9C9B69",
"a c #9B9D6A",
"s c #9C9D6A",
"d c #9D9B6C",
"f c #9E9D6C",
"g c #A09D63",
"h c #A09D64",
"j c #A09C69",
"k c #9FA064",
/* pixels */
"ds6--qqqqqqq:0t6-wes<---60rrrw<<<<2psr--qqqqqqq88t8--8ew----600wrw--<<4ssw<8qqq:::qq8t8-8ww<----",
"sa7-<qq:qq:q:8t<-wss<-<-8tttttwww<4fsi<8:q::::qq8q8--wsp<<--8qtqtt8w3<wsaw<8qqq::qqq8q--8pp<-<<8",
"iau<<qqq::qqqqq-<4pp<-88qttttttew<2iiu<68q:q::qq0q3-<8ei<<888qtttttt3<2iiu<8qqq:::qq08--2ee2-<89",
"<<2<6qqq88qqqqq<<<44<<ttqqqqqgtt8-<2<7-<8qq::0qqqq:-<<22<<tttqqqqhtt3-<<<<-60qq::qqqq0-<<2w<<wtt",
"=-<<6ttt88qqqq0--<-<<<ttqqqqqgtq8-<--<-6eqtq88q0qq--<<<<<<ttq9qqghht<-<-<<-60qtq8qqqqq----<<<ett",
"#-<<6rrt888qqq8--<%<<<tttqqqqqqq8--%=--6ttrq88qttq----%-<<tqq9q9qgqq--<--<<8rrr888qtt8-<<-<<<8tt",
"O=--8rrr8-89qt8---#%<-8ttqq9:qqt8--##--8rrw8--9rtq--<-#---tqqqq99qqq---#%<<8trw8<;8tt8-<<%-<-8tt",
"oO--8srw<--88t8---O#<-8qqq99:qqt8--oo=-8saw<=-8etq--<#O#--tqqq99q99q--=OO-<8rr6<--8tt8---O#--8tt",
"oo--6ar<*--<8t8---X#--8qq::qqqqq8--oo=-8asw-*-<8tt---#.#-6rqqqqqqqqq--=oo--8rr6*--8wt8--=oO--wtq",
"oo--6sw-*---<w8-<%X#-<8qq::qqqqq8--oo=-6sw<-*--8et---#.%<6rqq:qqqqqq--=.O<-8a7-*--<8ew<-= O--eqq",
"#=--6r-#-<*--ww<<-O---889::::q:t8--==--3r<**-**-ww<<<-O---q8q::qqqqt---=---6r<#*<*--ww<--O=--q8:",
"886--<-O####%<w<<8-3--8qqq::::qt:-3388-3<-*####*<w<<<<-3--8qq:::::qt--8888-6<-#####%<4<-8----88q",
"tt8----@oo###<w<<et83-8qqq::::qt;=<tt8-<**#oo###<<<<3w89--89g::::qqt--8tt8--**#.@###<2<-te8--8qq",
"ss8-<*#@o@###-<<<wtt3-8qgq::::qt;=<ssw<<**@oo###-<<<3ttt--89qq::::qq--wss8--*#@o@###<<<-tss3-8qg",
"sa8-<-oo@**#O%<<<wst;-899qqqq99t8-<ssw<<-#oO#*###<<<8etw--999qqq999q8-waww--*oo@**##%<<<sst33899",
"2<<<<#o@---#O#<<3we8--899::q999q8<<w<<<<*oo*--*OO-<<8ww8--999:gq999tw<2w2<<<*oo*-*###-<<www<-999",
"%%<2<Oo=;6;=OO<<<<----899qqq9999w<<>-<4<#o&<66=@o-<<<<----999qq999998<<>%<<<@o=666*OO-<<<----899",
"##<2-XO<666-@@-<<-#%--899qq99q994<<%#%3<OO6666<*o--<<-#=-<qq9qq99q983<<##<<-X#8666-@@-<<-O---999",
"#%<<<%-86<6<<--<<-O#--899qq99q9e4<2>%<3<#=w6668<*--<<#.--<999qq9999e<<<%%<<-#-3<-666--<<-O#--q99",
"#%4<3443<--<6<<<<%X#<-8999t99eee4<<##<4<34<<=-<w<--<<#+---999ttt99ep4<<#%42244<-=-66<<<<#O#--q99",
"X#2<4ww<---<72<<<#.#<;9999t99eep4<>X+<44w4<----76<<4<#.%--999qt999ep4<%X#<<4pi<-%=<w4<<<#.#--999",
".#><4w<--<-<<42<<#.O<:q9tqqqqqee3>%X+<24w<-----<w4<<<O.#-;999qqtqeee<<#.#<<yw<<<<=<242<<#.#-;89t",
"X#2<4<*-32<<<44<<#.#<-999qqqqq8e3%%X#<4w4-*<<<--<4<<<O.%--999qqtteee--%X#<242#<44--<2y22#.#--8qt",
"#<424<%<ii2<%<4<<-#<<;999qqqqq8w8-2%%<24<%<ww3--<4<<<%O---999qqtte99--<-%<24<-<ww<--<42<<#--3899",
"<<44<-<4ppi2<<<<222w<;999999qqqt8-e<<<<2-<2wew3--<<<22<<-399999qqqqt-<8<<34<-<wwew<-<<<<22w<-999",
"ww4<<-8wettw<<<<<4ii-;999999qqqt8-www33<-<wwett3-<<<44iw-399999qqqqq--8ww8<<-3etttw<<<<2wip<-99t",
"sr2<--8qqqqe88<<<wss-;999qqqqqqq<=8sew33-8tw8wt8<<<<4isw-399999qqqqq--8st<<--wttwwtw<<<<wsp--999",
"sw<-88ttqqqttw8-<wss--9t9qqqqqqq<=<se8-89wttwwttew<<4psw-;q99qqqqqqq-=8se<-8tttteeetw8<<wsp--999",
"ew<<8e99qt9etw8--wss<-wt9qqqqqqq--<eew-<qqtq00ett8-<<wsw--tttqqqqqqq--<se<-8qtt0q9ett8-<wee<-wtt",
"ssw-<000:::::qq--<ss<-89tqqqqqqq:-<ssp<<wr0::::::q--<wse-<8ttqqqqqqq--3ssi<<eq0:::::08--2sw<-89t",
"24w<<r00:0:::0q<<<4w--8ttqqqqqqq:<<4ww<2trq:::::qq8-<<w4--8tt99qqq:q8-<4ww<<ttq:0:::9q-<<4w--8tt",
"-<<<wtt000::00q3<<<3--8ttqqqqqqq8-<<<222trq::::::q8-<-<<--eqt99qqq:q8<<-<22wttq00:::qq6<<<<<-8tt",
"#%<<wttqqqqqqtt<<-%---wtttqqqq098-<%#<2wetqqq:::q93<<<%<--wtttqtq00q83<##<<wetqqqqqqqq<<-#<<-wet",
"##<<wettqqqqqtt8<-%<--eeet889q088-<-#<24etqqq:::qe3<<<%<-<sewq8q8800:3<##<<wetqqqqqqq8<<<#<<-eee",
"OO-<wetqqqq9qte3<<#<<-weew8;:8888--#O-<4ttqqqqqq9ew<-<#--<pew88888888-<#O<-we9qqqqqqte3-<#%<-wew",
"oo=-8e9qqqq9tte3<-X#<<www8--::888<-O.%-3tqqqqqqq9tw<-#X%<<www8=--8888--OO--899qqqqqtte3-<.#<<3ww",
"oo--8eqqqqq9qte3<%.O<24we-=$=;8883-Oo=-8tqqqqqqq9tw<-#.#<<ww8-#$-:888;-o.--899qqqq9qee3<<.O<<3we",
"OO--8qqqqqqqqqt<<-.O<3wiw-%O=-8w8-<#o=-<qqqqqqqqqe8-<%.#<<we3-%O-;888--OO--<qttqqq9qww<<<.O<4wpw",
"-----8qqqqqqqqt<<<%<<<8w<-%%#-<88-<<-<--8qqqqqqqq9<-<<%<<<w3--#%=-:98-8--<--qqqqqqqqew<<<%<<44w-",
"888-8qqqqqqqttw<<<24<<33-=%O%==88-3888--8qqqqqqqqq<-<<<<3<w<-=$%%=-w8-8w88--qqqqqqqtt8-<222<<33-",
"esw-8qqqqqqqttw<<4iw3<;-%%OO$%=-8--tt8-88ttqqqqqqq--<www3<3-%$OOO$=88-<ssw-8qqqqqqqttw--4ww<<--%",
"ss8-88qqqqttqq8-<wse<-<-OOOOO$O=6<<ssw-8eqtqqqtqqq--<ipw<3-=OOOOOOO-8<<ssw-88qqqqttqq8<<wsp<<<-O",
"pp3--qqqqqtttqt-<wse2<<-OOO$$$$=-<<www-<eqtqqqtttt3-<psw<<;%OOO%OO&=<<4is<=88qtqqtttq9<<wfp<<3-O",
"42<-8tttqqttqqt<<<44<<3%OO-8-=O=-<<<2<-<tqtqqqqqqt8-<<42<<<%O$;:-OOO8<42<<-8tqqqqttqq8<<<4<<<w%O",
"%%<<8tttttttqtt8--%<<<3%o-8q6-OO-<--%<<<tttttqqqqt8----<<<-OO-98:=OO--<%-<-8ttqttttqtt<<--<<33%O",
"##<<wtttttqqqtt8--#-<<-OO;8q06O*-<<-#<<wtttqqqqqtt8-<-#-<<%O=988q-OO--<##<<wtqqttqqqte<-<#-<<<O#",
"##<<wtqtttqqqt93--#-<<-#-8;-88-=-<<%#<<wtqqqqqtttt8<<<#-<<-%3w--88-=-<<##<<wtqqttqqqqw<-<##---#-",
"##<-wtqqttqqtt98--O%<<<<80---68-<<<##--wtqqqqttqtq<-<-O%<<38w:-=-88-<<<OO<<8qqttqqqqqw<--##<<<<8",
"OO-<8ttqqqqqttq8-=X#<<388-==--<88<-OX#-<tttqqqqqtt8-<#.%<<886-==--88<<%XO-<8qqtqqqqtte--#.#<<<88",
"+O-<<ttq888qqq0--#.O<<w8-------88<-OX#--wqqq:88qtq<--# #<<t:-------83<%..-<<qqqq8q8qte--#.O<<w8-",
"O#---tqqq8:8qq8--#.#<<8<--6r6-=3w<<##---8tqq8:88t0---#.#<<w---8r---w<<<##-<<qqqq888qq8--#.#-<88-",
"<<<<-qqqq888qq8---%-<<8-=-wr6-=-<<2<-<--8qqq::88tq----#-<<w--6rr6==<<<<<<<--8qqq888qq8---#---6-=",
"3w<--8qqq::qqtt--<<3<----60r8-=-<<<4i3--8qqq:qqqtt8-<<<<<--=-6rr8-=-<<2wi3--8qqq::qqtt<-<<<----=",
"ws3=<qqqqqqq80t8-<ww<---;0q088<-<<<wiw-<8qqqqqqqqt8-<<w4<----8q008--<<4psw--qqqqqqqqqt8<3w8-----",
"<<<-6tqqqqqq8qq--<<<<<8r0qqqqte88<<<<2-<8qqqqqqqqq:-<<<<<<0tqqq0tt98<<<<<<-60qqqqqqqqq-<<<<-<wr8",
"--<-6tttq8qtqq8<--<<<<wtttqqqttt8-<%*<-88ttq88qqqq---<<<<3ttttqqqhee<<<-<<-6rttq80qqq8------<rtt",
"#-<-wtttw88qqq8---%--<8ttqq9qqtt8--%#<<8etr888qttq----#-<<qttqq9qt9e<-<#-<-6rttw88qqq8------<wtt",
"@=-<7rrw<-;8tt8---##--8qqq99qqqt8--=#--8rrw8--qttq----#=--0qqq9q9qqt<--#-<<8rrw3-<qtt8---##--8qq",
"oO-<7rrw-=-8et8--=O#--8qqq99qqqt8--Oo=-8rrw-=-8wtq---#X#--0qqqq99qqt<--OO<<8rr8-=-8tt8---o#<-wtq",
"oo=<wsa<-*-68tw--=X#-<qtqqqqqqqq8--oo=-8ra2-*-<wet---#.#<-qqqqqqqqqt;-=oo--8ta<---68t8--%.#--9qq",
"oO--wa7**--<3ww---X#-<qqq:qqqqqq8--O@--8aw<,*--<ww<-<#X%<<qqq:qqqqqt;--oO--wr7-*--<<w8---.#--qqq",
"=-3-<7-#***--<w-<<#---88::::qqqq8--==<=3r<#****-<w<-<-#-<-88q::qqqqt;--=---67-##*#--<w-<<#---899",
"we3-<<*@@###-<w<<<<8--8qqq::::qk8-8<88-<--#@###*<8<-<w-<--8qq::::qqt;-68w3----#O###%<2-<3<<--8qq",
"tt3-<-*#o@##*<4<<wsw--8qqq::::qt:=6ssw-<-*#oo###<<3-<esw--09q::::qqt--8sa<-<**ooO##%<3<-esw--8qq",
"sa<-<-#oo####-<<<wst<-89qqq:::qt;-<ssw-<-#@o#@@#-<<-<sse<-:9qq::::qq--wsa4-<-#oo#*##<<<-sst3-89q",
"sw<<<-oo****#*<<<wst<-899qq:::qt8<<ai3-<-#o@**###<<<<isw<-q99:::::qt8-wsw2<<-@o#**###<<<wst<-889",
"<<<<<*o@-;-*@#-<<<<<--999qg:q9qtw<<2<<<<-oo*6-*##-<<22<<<;999:qq:q998<<2<<<<#oo---*O#-<<<<<--9:9",
"%%<2<Oo-666-o#-<<<%---99qq::qqqtw<<>#-<<#o*666-Oo--<<-#-<:999::qqq9w8-<<%<<<Oo-666*OO-<<<=---899",
"%%<2<O#6888-#O-<<<#%--q99qq99q9e4<<##%4<O@68886-#=-<<%O-<-999qq99eee3<<%%<2<OO66686-#-<<-O%--q99",
"#%<4<--6<-66---<2<O#--899qq99qep4<<>%<4<--8<-666--<<<#O---999qq99eee3<<%%32<-<w---6<--<<-O%<-999",
"#%<334w<--<<<<<<<#+%<-8999t999tp4<>##<444ww---<6<<<2<#X---qqqttq9eep2<%+%3334w<---<w<<<<%+%--899",
"X#2<442<----<4222#.#<-899qt999tj4<>++<24pw<---<<82<2<O.%--qqqttq9eee<<#X#<<4pw<--*<w2222#.#<-q99",
".#22yi<><<<<<44<<#.O-39qqqtttqet3-%X+<24w<<<<-<<4w<<<O.#<-9etqqtteee3-#X#22yy<-<<<-<44<<#.O<-qqq",
"X%22y2%%44<-<<4<<#.#-39qqqtttt9e3--O#24y<#-4w<--<4<<<#.%-<9etqqttee9--%O%42y2%<w4<-<22<<#.#<<8qq",
"-<<24<-<ww4<-<<<<<#<<-899999qq9q8-w<<222<%-wew<--4<<<<%<-399q99qqq99-<<--442<%<tw4<%<2<<<#<<-899",
"<<3<-=<8etp4--<2242w<-899999qqqq8-w2222<--8wee8--<<<444w-388q99qqqqq--8<444<-<wepe3-<<<24wi<;999",
"ww8<-=6tewte<-<<24ip--899999qqqt8=waiw<<=3ewttt8-<<<44iw-389q99qqqqq--wwe3<<-8eeeew<<<<<4ip<;999",
"te8-<<ttwwttw3<<<wsp--999999qqqt-=wss8-<88tewttww3<<2wsw-;99999qqqqq-=est3<<<wtewwew3<<<wfd--999",
"ew--89rt8qqttw3<<wfs--9t999qqqtt-=www<-880tq88ttw8<<2isw-;tt999qqqq8-=8s8--880rtwettw3<<ifs--9t9",
"esw<38000000ttw-<wsw--8ttqqqqqqq:-<esw<<wrr00000q8-<<wsw--tttqqqqqqq;-3we<-<80r008qt98<<wse<-eet",
"psi<<w000:::qqq<<<sw--8ttqqqqqqq:-<psp<<wrq0:::::q8--2sw<-qttqqqqqqq:-8ssi<<w000:::qqq<<<pw<-we9",
"244<<trq:::::qt<<<43--8ttq8qqqqq:-<22w<<ttt:::::qq8<<<w4-<tttqqqqqqq8<<<24<3srq::::qqq<<-2w--8tt",
"><222etq:::::qt<<-%<-=8ttqqqqq8qq3<<%22<ettq::::qt8<<%<<--wteqqqq88q8<<-<<<4stqq:::qqq8<--<-=8tt",
"%%222wqq::::qqt<<-#---wtttqqq88qq3<%#<<2etqq:::qqt8<<%%<--ettqqq88888<<%%2<4etqq::qq9t3<<%---wtt",
"##<<wwqqqqqqqqe<<<#---ewtt08888q8<-%#-<3etqqqqqqqt8-<<%<-<seeq88888883-##<<wwqqqqqqqet<<<%<--eee",
"OO<<8eqqqqqqqtw<<-#-<<wwwq8:88888--#O-<3ttqqqqqqqew-<-#-<<see98-88888--OO-<ww9qqqqq9ee--<#-<-see",
"OX-<899tqqqqqtw<<-.O<<4ww8---8888--O.#33tqtqqqqq9ew<<#.#<<www3---:808--Oo-<we9tqqqq9ee<-<.O<<3ww",
"oX--8ttqqqqqqew3<-.X<<<ww-=O=-888--O.=33tttqqqqq9ew<<O.#<<www-%=-:008--oo--8e9qqqqq9ee<<-.O<<3ww",
"OO---qtqqqqqqew<<-.#<<www=%O=-8e8<<=O---qttqqqqq9w3<<<.#<<we<-##=;88-<<#O--;qqqqqqqqee<<<X#<<3w8",
"--<--qtqqqqqqte<<<<<<<3w-==%==-w8-<<-<--8ttqqqqqtw8<<<-<<<w3-=====:q:-8<----9ttqqqqqtw<<2%-<<8w-",
"ew8-:qtqqqttttw--3w<<<33==$$%%=88-<ew8-:qqqqqqqqq8--<w383<4==%OO$%-88-8ww<-:qttqqqqtq8--338<<33=",
"ss8-8ttqqqttttw--wew2<3<%$OO$O#-8--psw-8qqqqqqqqqq--<eww4<4=%OoOOO=--=<es8-8tttqqqqt98--wwe3<3-%",
"ss8=89qqqqttttt-<ess<-3-$OOOOO%=-<<ps8-<8qtqqqqqqq<-<ssw<<3%OOoOOOO-<-8es<-8qqqqqqqtq8--ess4<3-O",
"ii<-89qqqqttttt-<wsw<<3-OO%=OO==-<8ww4<<8qtqqqqqqq<-<isw<<;%OO$=%OO=<<3ww<-6qqqqqqqtqt--wsp<<3-O",
"<<<-8qtqqqttttt--<4<<<;%OO-8;OO%-<<<<<<<qttqqqqqtt8-<<4<<33#O=:8;=O=-<<<<<-8tttqqqqttt--<<<<<3%O",
"><<<8tttttttttt---%<<<-OO-8q0=O=-<<%#<<8tttttttttt8---%<<3<#O-qtq=O=<<<#%<<8tttttttttt<---<<<3#O",
">#<<8qqqqqqqtqq---#%<<-OO88888=#-<<%#<<8tqtqqqqqtt8-<<#<<<=O=888q:==<<<%#<<wtq9qqqqttt<<<#-<<-@=",
"##<-wqqqqqqqtq8<--##2<-#<w<-:8:=-<<%#-<wtqtqqqqqtt8-<<#-<<-=;8;-:8;=--<##<<wtqqqqqqttt<<<#-<<<#<",
"#O--8ttqqqqqtq8<--O#2<<<88----8;---OO-<3tttqqqqqtt<-<%O-<<<88:----8-<--OO<-8qqtqqqqttt<--O#<<<<8",
"OO--8tqqqqqqtt8<--X#<<ww8-==--8w8<-OX#<<qtqqqqqqtt---#.#<<w88-----8w<<%.X-<3tqqqqqqqtq--%.O<<888",
"OO---t8888qqtq8--#.O<<w8---<---8w--OX-<-8qqq88qqt8---#.#<<ww<--<--<w3<%OO-<<qqqq8qqqt8--% O<<w8-",
"##<--qq9qq80qt8--%.#<<8---8w8==<8<<##-<-8qqqq888t8---%.-<<w---80-==6<<-##---8qqq888qq8--=.#<<w--"
};
