/* XPM */
static char *_4e1021874724f9da91ca17aa160847ag6ti3PpYUGel9IiR[] = {
/* columns rows colors chars-per-pixel */
"80 82 22 1 ",
"  c #9B934E",
". c #9B944E",
"X c #9C944F",
"o c #9F9752",
"O c #A09753",
"+ c #A09853",
"@ c #A19854",
"# c #A39A55",
"$ c #A49B56",
"% c #A59C57",
"& c #A69E58",
"* c #A89F5A",
"= c #A9A05B",
"- c #AAA15C",
"; c #ACA35E",
": c #ACA45E",
"> c #AEA560",
", c #B0A762",
"< c #B1A963",
"1 c #B3AA64",
"2 c #B4AB65",
"3 c #B4AC65",
/* pixels */
"%%%#,,&&=><=&<>;=%$%%%##:>$$$=>:*;<:%#o#o#<1-&:>&$$$-*##&&&&&&>1<=%-,>=-,:##%#o#",
"%%%#-<-=:<<::<>;&$%%%%#$;-&&&=>:%%&&%#o%oo&;*%::&***-*##&&&&&&>1<>&;<1>-=&%+*%#&",
"%%%%o#*:<1<,1<>;%$%%%%$&;&---+&#++o+%#ooo%+%%+#%#----*##&&&&&&:<<<->:>:%X #o&-==",
"=-#++++%:<<<<<<>%%&%=-%=,<-*%#####ooooooXo#$######-,1>&#-;=&&*:<1<<<<<-#+$$o=-&-",
":>%&&%##*:<<<<<>&&&&;:=->>%######$######o#$$$#####&=<,:-><=&&=:<,<<<<-#o#&##:>--",
",<=######*<<<<<<&&%=>>;>>-ooo###%&%%$##&#%$$$#######>,<><<-&==>,><<<>&oo##o%,<>-",
"<<,ooooo#:<<<<<<==-,<,,,,>&#o++#####%$$####$$=&#$###<<<<<<,:=-,,,<<<<:%oO##&-=++",
"%%%%%%#%><<<<<<<=-><<<<<,,<-$$######$$$####$$%Oo#$-,333<<<<<,>,<<<<<<<-%&&=-*#++",
"ooo::::11><<<<<<-><<<<<<,,>-%%$$####$$$$$$$$##O#=&;>>>>,<<<<<<<<<<<<<<,:>>>*#oo+",
"#Oo<<<<2<,<<<<<<><<<<<<:&*##O#$-=&&&&%%$$$&=&$%&=%%%%#*>,<<<<<<<<<<<<<<<<<,&#o#+",
"#O#<<<<<<<<<<<<<<<<<<<<>&&ooooO,-%%%%%%$$$*-%&>-O###&&;<<<<<<<<<<<<<<<<<<<,&#o*%",
"oO%<<<<<<<<<<<<<<<<>::;::=###oo-%++#%&&%%%*#+&>-X###=>,>>,,<,<<<<<<<<<<<<<,&#o#%",
"o#-<<<<<<<<<<<<<<<,*$$#&=%#$##o#O###%&$%%%*ooOooOO+#$;=***->>,<<<<<<<<<<<<,-$+ o",
"#*,<<<<<<<<<<<<<<,:&%$##$&#$oooo  o#&&o&&&&#ooooooo=&=#%&&&*:,<<<<<<<<<<<<<<>-OO",
"$;<<<<<<<<<<<<<<<>=%%%#o#%%#oooooo#%&$#&&&&&#oooooo==%#&*&&*:><<<<<<<<<<<<<<<<&#",
"*>1<<<<<<<<<<<<<<:&%&%$$&=&oOoooo#$&&+$%%%%%#oooooo=-##*=*&&;:<<<<<<<<<<<<<<<<%o",
"#;1<<<<<<<<<<<<<<-%%&&&&%=&oo+##--&=#+&o%%$#&:&#####:=&=---*&:<<<<<<<<<<<<<>>&oo",
"#=<<<<<<<<<<<<<<<-%%&&&%%:&+&&o%-&&&$#$o%%%&&--##*$#:=%=---&&;<<<<<<<<<<<<<>>&oo",
"o&><<<<<<<<<<<<<<-%%&&%#&,*$;:&$#%=$#&#o%%%=%#&=&>&+:=%=---&&;<<<<<<<<<<<<<,>&oo",
"#=:<<<<<<<<<<<<;#+o=:=%o#&----&#&&o+&&o #=$*&&##=,>>:=%&->>&o$-<<<<<<<<<<<<,>-##",
":><<<<<<<<<<<<<-ooo%&%&-&=&&&#&==%o#--# $-%$$--&$%%$%=-;;>;#+%&,<<<<<<<<<<<,,:;;",
",,<<<<<<<<<<<<<&ooo#&=:-&,&&&#-*%#+&>>%o&>-#o*=-*$$$&=->>-&+#=%::<<<<<<<<<<<,,,,",
",,,<<<<<<<<<<<<&o#+#&=-%&:=-=%-$#%&-,;#X%>:&O#%=-====-&>>=%+#*%:><<<<<<<<<<<,,>-",
",,<<<<<<<<<<<,,-o###&&%&-;&-&+&&=*%->&o o*-&##%&*&==->---&&#o$%>,<<<<<<<<<<,,<-%",
",,<<<<<<<<<<<,,,#o+*=#+#*&$&$o&&*%#&&o#ooO*$o#&&%%%%&:=#$&-%o+%>,<<<<<<<<<<,,<=*",
":>><<<<<<<<<<,,,&oO-*O. oO#%#%&###%&oo*ooo##oo#&=%$#O%#oo$-&oO*>,,,,<<<<<<<>>>:>",
"&&&<<<<<<<<<<<<<-$#*# X #=#%&&#$#$-&o##o##o#&#o#$-&%$=%oo#%%&&;><,,,,<<<<<,>-&:>",
"&&&<<<<<<<<<<<>-o++##Ooo&:o%->-*##&#O$Ooo###%##&=-&$&;=oo######=>,,,,<<<<<,>-&&&",
"&&&<<<<<<<<<<<-$ #$o##o#>>:::::%o##o##oX oo#$O#-,<,:->;oo##+#####,,,,<<<<<,:-&$$",
"$$=>,,;><><<,;#o#%#O X$=>>,:--#o#$$####oX o#$#oo&;-:::>-&Ooo#####&>><<1>:::>-$&&",
"&=><>=&=:><<,&o #o%&#%-*&**&##oo#$$#####oXo#$#+oO#%=*=--*O$;$O###&>><<>-&&=:-&&%",
"->1--=&%=,<<,-Oo.#*;%####%%$+ooo+$$######oo#$#+#oo&-%%%$#%-,-&###=,><,=*------*#",
":--$:<=$-1<<<>-*==&%###oX ooX###&&+#*#o########%%##%#oo#%&-:,,---:,<<>=-><>$$-$#",
"%#+&,<=&->><<,:-*&%*=&%ooX###%%%$#%%%#o###*%Oo#%%####Oo#%&%%*=-:>,,,:---><<*##$$",
"$#o#=&&--*=>1,:-##%-=#oo#$$$$###+#%%ooo####%&+o#####&$+##%&&$#&:<<,-%&=&%==&#%$$",
"%###&%%--&*><>-%##%&%oo#$&$##oOO####O#######&&%#O###&%$%##&=*$$=<<>*&%&&$&-&#%%&",
"&#o%::&---:><-%O$%%%###$%&%$#+++#+o$##$$$$$##$&$##o#%%%&$##&-&##&:,;:*%&-:>*Oo--",
"-*+$:<=:-;>;-##+$$$##$%%%&%#####%##&##$$%%$$$%%###o$%%%&$#+#&=%##%:,,&%-->>&#%<=",
":<>:<>-:;-*%#+O#%%#O#$%$%&%##=--=$$&##%&%%$$$=;-&#o#$%%%%#+o#&&$##&;:%-:->,:->1=",
"-,,<<<<><:--#=##-%#o#%$#&%O#%&>,*$$$#$-<-%%%%$=;-*#o#$%%%%#o#;-##%%%%*:><,<<<<,=",
"*:<<<<<,<<<-&=##-%Oo#%%$&+O#%*:-%$$$#$-<-&%%%#&::=%#+#$%%&%O#-:$$&&&:>>,<,<<<<-&",
"%-,<<<<<<<;=:=##-%Oo#%&&&oo#%=-&#$$$$$-<-&%%%#$;>*%##+#%$%&##-:&%***<<<<<<<<<<&&",
"-;<,-:<<<,*:,-#&,=O#$$$&%oo#$#;=&&$#%%::&#$$$&$$&$%&#+#%#$&##-<:&-:&:<,13,;>-=$;",
"<,;&%&:,,>*:,-#&-&o#$$$&%oo$$&-&&&$#%%:&=&$$$&$$=-&%#+#%#$&##->;%:,-><,,>*&-::>1",
"<>-$=&-:::*:,-#&%#o#$$$%%oo%$>=#&&$#%%:*;##$$&$$-,-$#+#%#$&##=-=$><:><,<>===:,<<",
"<>-==*>>%#&:&-OO$#oo$$####o%$-:#&&$#&%$%%##$$&$$--*&#+o%#%&##%-&o-:>:==>;=>=;>,>",
">;=;:>,-#o%:&#o#$##+$$+###o%$*>$&&##%%$$$$$$$&$$-=&&#+o#$$%$&&-%+=->-$%>>&=;><,>",
"-=%&-,-%#o#>-&#$$%*#$$####o$%*>$&&###%&$$$$#$&%$-=&&##o#$$%&;-&%%=->*##-,;&*-:,>",
"-=-%%*&#Ooo-><=&&-;#o$###oo#%&:&&&$##%&%%%##$*&%-=&&##O$$$#&,>-&=:<<%oo#*-*%%&;>",
"&%;:-&*#o+o&,<=*->:#o$### o#$$-*&&%$$$$%%%##&=&&-=&&###$$%#%><>=->1,#oO##&====&>",
"=$&<,:=#o#O&;-&*>,-$&##&%o+#%#-=%%&&$######&-*$*>=&&#+##%&=%-<>=--,:#++#&-:---&>",
"<-->:=&#o##&*%#*<>&&;#%&&++#%#--%$*=$##ooo&=-&$-,*&&##$$%=>&&>:=-&;-#o+%&-:&&&=>",
">,=-*%##$+$-$OO&-&#*>-$$$#+#&#->=$&=%#oooo-=&%=<:&&&##$$&:1>#$&&&#%*&o+%#%:-=>,,",
">:#OO++$$#=>%oo##%=->-$$$###&#->:%$**#oooo*&$%><-%%%##%$&:<>&$###$*;>%#%#o&&-1,,",
">-ooo##$$#><***O#%&->:$$$###&#->>=$&=#oooo%$#&,>*$$%##%$&:<>-*****->3-#%# oo#,,,",
":#o#%%$:>$&<3<:%***&-:=&=$+#&#%&>>%#&&+oX#=#$:-#$$$$##%*-:>;*%%=:,<<:%&-##=###=,",
"-#oooO#:<;&-1<:%OOO#*;&&=$+$&o+#=:=%&&#+o%&#&-=%$$%#+#%%&-=%#o#&=<<<&=<<&#%###=,",
":&#O++&:<<;-:<:%OOOo%=%&=$+%&O#%&;>=%*%##*$#==&=$$$###&#$**$+oo#%<<<-<1<=o####=,",
",>-***===&&%&=&#oooo#%#=-$+%&#$%&=:=$%&%#&##-*=&o%$##O&$$%%#+ooO#;>==:;-*#o+#&>,",
"<<<,,,=#+####&$+oooo###;-#o%%$$$&&-=$$%%$%#===-$O%$$#o&&$$#++++++=-#####*:-==-,,",
"<<<<<<*OXo+++&$+ooo#oo&>=oo%%$$$&&&=$$%%%$$-=-&##$%&#o&-&#o++++++%&+oooo%,3<>>,,",
"<<<<<<=#oo##+&$#oooOoo=,&oO&&$$$$%$%%#%$%$&**=##$$&=$o$-=#ooo++++$&o####&><<<,,,",
"<<<<<<:%+O$##*%#ooooXo=:$##%=%%%%$$$#+%$$##$%$#&&#&==##*-%#ooooo+&&##$$%-<><<<<<",
"<<<<<<,-#o##&*%#ooo#O#-*+%&&$$%%==%#oo#*$oo##*--%#&=-=$$-*$##ooo+&*##$$%:<><<<<<",
"<<<<<<<:%Oo#=&%#ooo#$%-$#--&#$$%;>&#o o&#  o+:<-##&=-:&#*-*%$#oo+&&####%:<,<<<<<",
"<<<<<,<,-#oo&%%%O#%*==&&;<;&#o$-><-#ooo+o oX&11-&%%%-><-%&==*%o+#&%#oo#-,,,<<<<<",
"<<<<<<<<:$o#%#%=&&&&*=-><3<:&#&:><>&ooo%#ooX&<<:-===-><<-%&&=*%&&#$$+#=>,,,<<<<<",
"<<<<<<<<>%o%#o%-:-&&*=-,>>,-&$=>,<1;++o=%#oo&>>>:%$$;><1<-&&&&---o#&oo&,<<<<<<<<",
"<<<<<<<<-+++oX#-<>:<:;<,,,,=%&;>:,<%###-&#+o-,-:1-&$=><<<<,<-#,<>ooooo#;<<<<<<<<",
",<<<<<<<-+++oO$*##&;><<,,,&$$;>>::-#########=:*-<:-&&-><<<<:&##%&$#ooo#;<<<<<<<<",
"<<<<<<<<-++++$$%OO+$>31<<<==;>>,-=&####Xo#*#%=$&,>:-%=>,,<,=###+#-&ooo#-,<<<<<<<",
"<<<<<<<<>%#&-;%o##+$>2<<<<>,;&->-#&=-%#oo+=;-$#-<>=>:>>,,<,=oo###-:&###-,<<<<<<<",
"<<<<<<<<<>-<3>&o###o&<,<<<,<-;>:-#->>&+ooo&,>&$->:#%<<,,<<-#ooO##&>:-:>:,<<<<<<<",
"<<<<<<<<<<<11-&####o&<<<<<,<--;&=%:,>&+ooo#:<-&*-<;=<<<<<<;#ooo+#$:,<<1<,<<<<<<<",
"<,<<<<<<<,>--=*&#%$*><,<<<<>-&%&;=><>=oooo+;<---=&=-<<,,<<<-#o###$=;:><<<<<<<<<<",
"<,<<<<<<<>&#$;;;*>;><<,,,,<--*#:<=*--*X+++%;>=>1:%&<>>,,<<<,;&=*&%&##&><<<<<<<<<",
"<<,,<<<<<:%#-::;%><,<<,,,,>&*$&:>-$#&&o+++:--*>1>-=>*-><<<<<,:;;:&-&+%;<<<<<<<<<",
"<<<<<<,,,>-:3;::o&:>,,,,,,:%&#*>>,:&=:=+++<=&=><:&#&#=,<<<,,,>&->=>>&-<<<,<<<<<<",
"<<<<<<;=$&-><&>:Xo-,,,,,,,,;;--;><<,,<<$#=>,,<>::>*==>,<<<,,;#O=,=:<--==-><<<<<<",
"<<<<<<;=$$%=;&>:Oo&>,,,,,,,--&&*;,<<<<<&&;,,,>:-==-<><<<<<,,:#O=,---%$%*-><<<<<<",
"<<<<<<;=$#O#&&>>$o%:,,,,,<<*&#$&-:,<<<<-=><<<>-&&$#=<<<<<<,,:#O=,--&+#$*-:<<<<<<",
"1>*$-<1=+####;,<>#&>,<<<<<<<:;=-=-<<<<<--,<<<>&&:*%&,,,,<<<1:$&><>-$+#&=,3<;;;<<"
};
