/* XPM */
static char *_c2678b396cf4788cea32b9e1d10e2aeYAh1owsObHaaLXpL[] = {
/* columns rows colors chars-per-pixel */
"94 95 39 1 ",
"  c #8F8A4C",
". c #928A4C",
"X c #958E51",
"o c #988E51",
"O c #969152",
"+ c #9D9557",
"@ c #9D9857",
"# c #9E9758",
"$ c #9E9859",
"% c #A09657",
"& c #A09759",
"* c #A19B5D",
"= c #A39A5C",
"- c #A29B5C",
"; c #A39C5C",
": c #A69D5F",
"> c #A6A05F",
", c #A59F60",
"< c #A79E61",
"1 c #A89F61",
"2 c #A7A363",
"3 c #A7A463",
"4 c #AAA163",
"5 c #AAA463",
"6 c #A8A364",
"7 c #ABA264",
"8 c #ACA365",
"9 c #ABA465",
"0 c #ACA565",
"q c #AEA967",
"w c #AFAB69",
"e c #B0A667",
"r c #B0A867",
"t c #B0A768",
"y c #B2AA6A",
"u c #B2AC6B",
"i c #B4AD6B",
"p c #B2AE6C",
"a c #B4AD6C",
/* pixels */
"Xwa++:++uppppppppppu#+:++yyO.......0a#+:#+wppppppppppp-+:#+0p+.......5u:+-#+8ppppppppppp<+-#+3",
".Oy++y++uppppppppppu#+e++y+........Xy#+0#+wppppppppppp-+0#+0-.........0:#9-+8ppppppppppp<+4:+4",
"..0++y++uppppppppppu#+0#+0..........4#+0#+wppppppppppp-+0#+0X.........-:#9-+8ppppppppppp<+4:+4",
"..0++y++uppppppppppu#+0#+0..........1#+0#+wppppppppppp-+0#+0..........-:#9-+8ppppppppppp<+4:+4",
"..0++4++uppppppppppu#+1++0.....+....1#+1#+wppppppppppp-+<#+0.....+....-:+<-+8ppppppppppp<+:-+4",
"..0++#++uppppppppppu#++++0....0uO...1#++++wppppppppppp-++++0....9u+...-:++++8ppppppppppp<+#++4",
"..0+++++uppppppppppu#++++0...9aayX..1#++++wppppppppppp-++++9...2aauO..-:++++8ppppppppppp<++++4",
"..0+++++uppppppppppu#++++0..4ayypy..1#++++wppppppppppp-++++9..:ua0ayO.-:++++8ppppppppppp<++++4",
"4.0+++++uppppppppppu#++++0 :aa+Xwa0.1#++++wppppppppppp-++++9.-uu$.0ay.-:++++8ppppppppppp<++++4",
"a:0+++++uppppppppppu#++++0-uu$..Oyp44#++++wppppppppppp-++++0$ua;..Xqp0-:++++8ppppppppppp<++++7",
"aau+++++uppppppppppu#++++yui-....+uaa#++++wppppppppppp-++++0pi:....Oyau:++++8ppppppppppp<++++4",
"-aa+++++uppppppppppu#++++yu:..:0..+pa#++++wppppppppppp-++++0p4..-y..+pp:++++8ppppppppppp<++++7",
".:a+++++uppppppppppu#++++y4..$pp7..-a#++++wppppppppppp-++++00..+pp0..+p:++++9ppppppppppp<++++4",
"..0++X++uppppppppppu#+X++e..$pppp2..7#+X++wppppppppppp-+X++0X.+uppp9..;:+o++9ppppppppppp<+O++4",
"#.0++X#+uppppppppppu#+X++0.+appppp:.1#+X++wppppppppppp-+X++0.Oyupppu2.-:+X++9ppppppppppp<+X++4",
"p+0++X#+uppppppppppu#+.++0Ouupppppp$2#+X++wppppppppppp-%o++0Owppppppu;$:+X++0ppppppppppp<+X++7",
"puy++X#+uppppppppppu#+X++ywpppppppppw$+X++wppppppppppp-+X++0wpppppppppq:+X++8ppppppppppp<+X++4",
"paa++:++uppppppppppu#+-#+yppppppppppp$+-++wppppppppppp-+-#+0ppppppppppp:+-#+8ppppppppppp<+-#+7",
"paa++y++uppppppppppu#+e#+yppppppppppp$+0#+wppppppppppp-+0$+0ppppppppppp:+9-+9ppppppppppp<+4;+3",
"paa++y++uppppppppppu#+0#+yppppppppppa$+0#+wppppppppppp-+9&+0ppppppppppp:#9-+9ppppppppppp<+4;+3",
"paa++y++uppppppppppu#+0++yppppppppppa$+e#+wppppppppppp-+9#+0ppppppppppp:#9-+9ppppppppppp<+4;+9",
"paa++7++upppp:-apppu#+4++yppppppppppa$+4#+wppuu2#upppp-+2#+0ppppppppppp:#2-+9pppp0+upppp<+:-+9",
"paa+++++uppp2..:pppu#++++yppppppppppa$++++wppu0..-uppp-++++0ppppppppppp:++++8appw..+uupp<++++9",
"paa+++++upp0....4aap#++++yppppppppppa$++++wppq....:ppp-++++0ppppppppppp:++++8aayX...$uup<++++9",
"paa+++++upq......0pp#++++yppppppppppa$++++wpwX.....4pp-++++0ppppppppppp:++++8py+.....-pp<++++9",
"paa+++++uyX.......0u#++++yppppppppppa$++++quO.......0a-++++0ppppppppppp:++++8u+.......<a<++++9",
"paa+++++yO........Xq#++++yppppppppppa$++++w+.........0-++++0ppppppppppp:++++8$.........9<++++9",
"paa+++++0..........2#++++yppppppppppa$++++t..........:-++++0ppppppppppp:++++0..........$<++++9",
"paa+++++0..........2#++++yppppppppppa$##++r..........:-++++0ppppppppppp:++++0..........-<++++9",
"paa+++++0....O+....2#+#++yppppppppppa$###+r.....+....:-++++0ppppppppppp:++++0.....-....-<++++9",
"paa++X++0...XyuO...2#+X++yppppppppppa$+X+#r....qi+...:-+X++0ppppppppppp:+O++0....5i-...-<+O++3",
"paa++X#+0..XqppwX..2#+X++yppppppppppa$+X+#q...9puu+..:-+X++0ppppppppppp:+X+#0...2pui+..-<+X++3",
"paa++X#+0..0pyqpw..2#+X++yppppppppppa$+X++q..4ay0pyX.<-+X++0ppppppppppp:+X++0..:pp9pu+.-:+X++9",
"paa++X#+9.4pwXXyu9.2#+.++yppppppppppa$+X++q.:pu+.9pqX<-+X++0ppppppppppp:+X++9.-pp$.9pyO-:+X++9",
"paa++-++0<uu+..oup44#+-++yppppppppppa$+-++q-au+...qp0<-+-#+0ppppppppppp:+-#+0$uu-...0pw;:+$$+9",
"paa++y++upu+....+aau#+0#+yppppppppppa$+0#+waa$....Xyaa-+0#+0ppppppppppp:+9-+0uu:..o..qpp<+2$+9",
"paa++y++up-..40..+ap#+0#+yppppppppppa$+0#+ya:..:w..+ua-+0#+0ppppppppppp:#9-+8u4..-yO.Oyp<+4;+3",
"paa++y++u:..:aa4..$u#+0#+yppppppppppa$+0#+w4..-uu0..+a-+0#+0ppppppppppp:#9-+80..+uuyX.Op:+4;+3",
"paa++0++q..;pppp2..4#+9#+yppppppppppa$+8#+q..#aapp7..<$+7#+0ppppppppppp:+4-+0X.+ppppqX.-:+<-+3",
"paa+++++0.$pppppu;.4#++++yppppppppppa$++++w.+uaappa<.<-++++0ppppppppppp:++++0.Oyppppp9.-:++++3",
"paa+++++0+pppppppa-4#++++yppppppppppa$++++yOiaaappaa::-++++0ppppppppppp:++++0Oyppppppp4-<++++9",
"paa+++++wuppppppppuq#++++yppppppppppa$++++qyappppppppw-++++0ppppppppppp:++++0qpppppppppw:++++9",
"paa+++++uppppppppppu#++++yppppppppppa$++++wpappppppppp-++++0ppppppppppp:++++0ppppppppppp:++++9",
"paa+++++uppppppppppu#++++yppppppppppa$++++yaappppppppp-++++0ppppppppppp:++++8ppppppppppp:++++9",
"paa+++++uppppppppppu#++++yppppppppppa$++++wppppppppppp-++++0ppppppppppp:++++8ppppppppppp<++++9",
"paa+++++uppppppppppu#++++yppppppppppa$++++wppppppppppp-++++0ppppppppppp:++++8ppppppppppp<++++9",
"paa+++++uppppppppppu#++++yppppw2ppppa$++++wppppppppppp-++++0ppppu2ppppp:++++8ppppppppppp<++##9",
"paa++X#+uppppppppppu#+X++yppuyX.5uupa$+O++wppppppppppp-+O++0pppuO.4iapp:++++9ppppppppppp<++++9",
"paa++X++uppppppppppu#+.++yppyO...0upa$+X++wppppppppppp-+X++0ppu+...8app:+X++9ppppppppppp<+X++9",
"upa++X#+uppppppppppu#+X++yaa+.....yua$+X++wppppppppppp-+X++0pp$.....0pp:+X++9ppppppppppp<+O++9",
"+uu++.#+uppppppppppu#+.++ya#......Oya#+X++wppppppppppp-+X++0p-......Xqu:+X++0ppppppppppp<+X++3",
".+u++-++uppppppppppu#+-++y-........+a#+-#+wppppppppppp-+-++0<........Oy:+$#+8ppppppppppp<+$#+2",
"..0++y++uppppppppppu#+e++0..........4#+0#+wppppppppppp-+0#+0..........-:#9-+8ppppppppppp<+4-+4",
"..0++y++uppppppppppu#+0#+0..........1#+0#+wppppppppppp-+0#+0..........-:#9-+8ppppppppppp<+4-+4",
"..0++y++uppppppppppu#+0#+0..........1#+0#+wppppppppppp-+0#+0.....X....-:#9-+8ppppppppppp<+4-+4",
"..0++0++uppppppppppu#+0#+0....4q....1#+8#+wppppppppppp-+7#+0....;yO...-:+4-+8ppppppppppp<+1-+4",
"..0+++++uppppppppppu#++++0...;uu0...4$++++wppppppppppp-++++0...-puq...-:++++8ppppppppppp<++++4",
"..0+++++uppppppppppu#++++0..-pppu4..4$++++wppppppppppp-++++0..+ppup0..-:++++8ppppppppppp<++++5",
"-.0+++++uppppppppppu#++++0.+uu-+uu>.4#++++wppppppppppp-++++0.+pp<Oyp7.-:++++8ppppppppppp<++++4",
"a#0+++++uppppppppppu#++++0+uu<..+uu;4#++++wppppppppppp-++++0+wp9..+up2-:++++8ppppppppppp<++++4",
"apy+++++uppppppppppu#++++ywp4....-upy#++++wppppppppppp-++++9wu0....+ipq:++++8ppppppppppp<++++7",
"4pp+++++uppppppppppu#++++yp9..+:..:pa#++++wppppppppppp-++++0pq..+4..$iu:++++8ppppppppppp<++++7",
".9p+++++uppppppppppu#++++y0X.+ap;..2a#++++wppppppppppp-++++0wX.Oua2..-u:++++8ppppppppppp<++++7",
"..y+++++uppppppppppu#++++yX.+yppp$..0#++++wppppppppppp-++++0+.Xyppp:..4:++++0ppppppppppp<++++4",
"O.0++O++uppppppppppu#+O++0.Xyppppp+.1#+O++wppppppppppp-+O++0X.0ppppi-.-:++++9ppppppppppp<++++7",
"yX9++X#+uppppppppppu#+X++e.qppppppu+1#+X++wppppppppppp-+X++0X0pppppai+-:+X++9ppppppppppp<+X+#4",
"pqw++X#+uppppppppppu#+X++t9ppppppppy9#+X++wppppppppppp-+X++09ppppppppu2:+X++9ppppppppppp<+X+#7",
"ppa++X#+uppppppppppu#+X++yppppppppppp$+X++wppppppppppp-+X++0ppppppppppp:+X++9ppppppppppp<+X++2",
"paa++&++uppppppppppu#+#++yppppppppppa$+##+wppppppppppp-+#++0ppppppppppp:+#++9ppppppppppp<+#++9",
"paa++y++uppppppppppu#+e#+yppppppppppa$+e#+wppppppppppp-+0&+0ppppppppppp:+0-+9ppppppppppp<+4:+7",
"paa++y++uppppppppppu#+0#+yppppppppppa$+0#+wppppppppppp-+0#+0ppppppppppp:#9-+9ppppppppppp<+4-+9",
"paa++y++uppppppppppu#+0++yppppppppppa$+0#+wpppppuppppp-+0#+0ppppppppppp:+9-+9ppppppppppp<+4-+9",
"paa++e++uppppwqppppu#+0++yppppppppppa$+0#+wppppy9ppppp-+8#+0ppppppppppp:+7-+9ppppu9ppppp<+4-+9",
"paa+++++upuuuO.ypppu#++++yppppppppppa$++++wppuu+.0uppp-++++0ppppppppppp:++++8pppi$.4pppp<++++9",
"paa+++++upuu+..Oyppp#++++yppppppppppa$++++wppi+...qupp-++++0ppppppppppp:++++8ppp-...0ppp<++++9",
"paa+++++upu+....+ppp#++++yppppppppppa$++++wpp-.....ypp-++++0ppppppppppp:++++8pp2....X0ap<++++9",
"paa+++++ua-......+uu#++++yppppppppppa$++++qa:......Oup-++++0ppppppppppp:++++8u4......Xya<++++9",
"paa+++++u:........-u#++++yppppppppppa$++++w4........+u-++++0ppppppppppp:++++80........Ou:++++9",
"paa+++++0..........4#++++yppppppppppa$++++r......... 2-++++0ppppppppppp:++++0..........-:++++9",
"paa+++++0..........2#++++yppppppppppa$++++r..........:-++++0ppppppppppp:++++0..........-:++++9",
"paa+++++0..........2#++++yppppppppppa$++++r..........:-++++0ppppppppppp:++++0..........-<++++9",
"paa+++#+0....:4....2##O++yppppppppppa$++++r....-0....:-++++0ppppppppppp:++++0....+yX...-<+++#9",
"paa++X#+0...-uu2...2#+.++yppppppppppa$+X++q...#up9...:-+X++0ppppppppppp:+X++0...+ua0...-:+O+#9",
"paa++X#+0..-aupa:..2#+.++yppppppppppa$+X+#q..+upap2..<-+X++0ppppppppppp:+X++0..Oupup0..-:+O++9",
"paa++X#+0.+up:-ai-.2##.++yppppppppppa$+X+#q.Oua4+pp;.<-+X++0ppppppppppp:+X++0.Xwp0Oup4.-<+X++3",
"paa+++#+0+ua2..-uu+2##+++yppppppppppa$+++#qXyp0..$up-:-++++0ppppppppppp:++++0Xquy..+up:-:++++3",
"paa++y++wwp9....>uu0#+e#+yppppppppppa$+0#+wwaq....-pp0-+0-+0ppppppppppp:+9-+00pwX...@pp0<+2;+9",
"paa++y++up0..+$..4uu#+e#+yppppppppppa$+0#+yayX.O;..2ap-+0#+0ppppppppppp:#9-+0py+..:..-pp<+2;+9",
"paa++y++uwX.+ui+..9u#+0#+yppppppppppa$+0#+wuO.Xuu-..7p$+0#+0ppppppppppp:#9-+0u+..qu:..:a<+4;+9",
"paa++t++yX.Oyppu+..q#+0++yppppppppppa$+0#+q+.Xwppp+..0-+0#+0ppppppppppp:+8-+8%..9ppu-..7:+4:+9",
"paa++#++0.XwppppuO.4#++++yppppppppppa$+#++w..0ppppa+.:-+#++0ppppppppppp:+#++8..4ppppi#.-<+#++9",
"paa++##+0.0pppppuw.4#++++yppppppppppa$++++w.4ppppppyO<-++++0ppppppppppp:++++0.:ipppuuu+-<++++9",
"paa+++++09ppppppppq4#++++yppppppppppa$++++w2ppppppppw9-++++0ppppppppppp:++++0;ppppppppu2:++++9",
"paa+++++uppppppppppp#++++yppppppppppa$++++qppppppppppp-++++0ppppppppppp:++++0ppppppppppp:++++9",
"paa+++++uppppppppppp#++++yppppppppppa$++++wppppppppppp-++++0ppppppppppp:++++8ppppppppppp<++++3"
};
