/* XPM */
static char * player_up_xpm[] = {
"32 32 8 1",
" 	c #509B66",
".	c #000000",
"+	c #573A23",
"@	c #402717",
"#	c #AC7B5D",
"$	c #1D438A",
"%	c #2C65B5",
"&	c #0C0E19",
"                                ",
"                                ",
"                                ",
"                                ",
"                                ",
"                                ",
"                                ",
"              .. ....           ",
"            ...+.@++.           ",
"           .@+++@++..           ",
"           .++++++++@.          ",
"          .@+++++++++@.         ",
"          .@+++++++++@.         ",
"          .@+++++++++@.         ",
"          .@@+++++++@@.         ",
"           .@@@+++@@@@.         ",
"           .@@@@@@@@@.          ",
"           .#@@@@@@@#.          ",
"            .##@@@##.           ",
"            .+#####+.           ",
"            .+++++++.           ",
"            .+++++++.           ",
"           .#@+++++@#.          ",
"           .#$%%$%%$#.          ",
"           &.$$$.$$$.&          ",
"          &&.@@.&.@@.&&         ",
"          &&&&&&&&&&&&&         ",
"           &&&&&&&&&&&          ",
"                                ",
"                                ",
"                                ",
"                                "};
